<svg width="23" height="23" viewBox="0 0 23 23" fill="none" xmlns="http://www.w3.org/2000/svg">
<path d="M6.5319 13.165L5.16522 19.083C5.1229 19.2622 5.13561 19.45 5.20168 19.6219C5.26775 19.7937 5.38411 19.9417 5.53557 20.0464C5.68703 20.1511 5.86655 20.2077 6.05068 20.2088C6.2348 20.2099 6.41498 20.1554 6.56767 20.0525L11.562 16.723L16.5564 20.0525C16.7126 20.1563 16.8968 20.2097 17.0843 20.2056C17.2718 20.2014 17.4536 20.14 17.6051 20.0295C17.7567 19.919 17.8707 19.7648 17.932 19.5876C17.9933 19.4103 17.9988 19.2185 17.9478 19.0381L16.2702 13.1678L20.4308 9.42362C20.564 9.30363 20.6592 9.14722 20.7045 8.97373C20.7498 8.80023 20.7432 8.61726 20.6856 8.44745C20.6281 8.27763 20.522 8.12842 20.3805 8.01826C20.239 7.9081 20.0683 7.84182 19.8896 7.82763L14.6604 7.41121L12.3976 2.40219C12.3255 2.2409 12.2082 2.10394 12.0599 2.00784C11.9116 1.91173 11.7387 1.8606 11.562 1.8606C11.3853 1.8606 11.2124 1.91173 11.0641 2.00784C10.9159 2.10394 10.7986 2.2409 10.7264 2.40219L8.4636 7.41121L3.23445 7.82672C3.05875 7.84063 2.89079 7.90487 2.75065 8.01175C2.61052 8.11863 2.50414 8.26361 2.44424 8.42936C2.38435 8.59512 2.37347 8.77462 2.41292 8.94639C2.45237 9.11816 2.54047 9.27492 2.66668 9.39794L6.5319 13.165ZM9.14877 9.19706C9.31249 9.18416 9.46973 9.12746 9.604 9.03289C9.73826 8.93832 9.84462 8.80937 9.91191 8.65956L11.562 5.00805L13.2121 8.65956C13.2794 8.80937 13.3858 8.93832 13.52 9.03289C13.6543 9.12746 13.8115 9.18416 13.9753 9.19706L17.6185 9.48599L14.6182 12.1863C14.3577 12.4211 14.2541 12.7825 14.3495 13.1201L15.4988 17.1421L12.072 14.8573C11.9216 14.7564 11.7445 14.7025 11.5634 14.7025C11.3822 14.7025 11.2052 14.7564 11.0548 14.8573L7.4739 17.2449L8.437 13.0751C8.47231 12.9218 8.46757 12.7619 8.42323 12.6109C8.3789 12.4599 8.29646 12.3229 8.18384 12.2129L5.39728 9.49608L9.14877 9.19706Z" fill="#F3CD03"/>
</svg>
