<svg width="204" height="204" viewBox="0 0 204 204" fill="none" xmlns="http://www.w3.org/2000/svg">
<path xmlns="http://www.w3.org/2000/svg" d="M98.6311 2932.42C98.5734 2932.25 98.4673 2932.1 98.3258 2931.99C98.1843 2931.88 98.0137 2931.81 97.8349 2931.8L92.6057 2931.38L90.3429 2926.37C90.2709 2926.21 90.1536 2926.08 90.0054 2925.98C89.8572 2925.88 89.6843 2925.83 89.5076 2925.83C89.3309 2925.83 89.158 2925.88 89.0097 2925.98C88.8613 2926.08 88.744 2926.21 88.6717 2926.37L86.4089 2931.38L81.1798 2931.8C81.0041 2931.81 80.8361 2931.88 80.696 2931.98C80.5558 2932.09 80.4494 2932.24 80.3896 2932.4C80.3297 2932.57 80.3188 2932.75 80.3582 2932.92C80.3977 2933.09 80.4858 2933.25 80.612 2933.37L84.4763 2937.14L83.1096 2943.06C83.0681 2943.23 83.0814 2943.42 83.1478 2943.59C83.2142 2943.77 83.3305 2943.91 83.4818 2944.02C83.6331 2944.12 83.8123 2944.18 83.9962 2944.18C84.1801 2944.18 84.3601 2944.13 84.513 2944.03L89.5073 2940.7L94.5017 2944.03C94.6579 2944.13 94.8422 2944.18 95.0297 2944.18C95.2171 2944.17 95.3989 2944.11 95.5504 2944C95.702 2943.89 95.816 2943.74 95.8773 2943.56C95.9386 2943.38 95.9441 2943.19 95.8931 2943.01L94.2155 2937.14L98.3761 2933.4C98.6485 2933.15 98.7485 2932.77 98.6311 2932.42Z" fill="#F3CD03"/>
</svg>